<svg width="275" height="150" viewBox="0 0 275 150" fill="none" xmlns="http://www.w3.org/2000/svg">
<path d="M274.688 148.34H0V149.518H274.688V148.34Z" fill="#E6E6E6"/>
<path d="M159.489 146.496H114.82L116.335 126.812H157.974L159.489 146.496Z" fill="#E6E6E6"/>
<path d="M162.517 144.227H112.549V148.769H162.517V144.227Z" fill="#E6E6E6"/>
<path d="M222.706 0H51.9825C50.7777 0 49.6223 0.478594 48.7704 1.33048C47.9185 2.18237 47.4399 3.33777 47.4399 4.54252V108.642H227.248V4.54252C227.248 3.94599 227.131 3.3553 226.903 2.80418C226.674 2.25305 226.34 1.7523 225.918 1.33048C225.496 0.90867 224.995 0.574066 224.444 0.345783C223.893 0.117499 223.302 5.15827e-07 222.706 0H222.706Z" fill="#3F3D56"/>
<path d="M47.4399 108.641V125.675C47.4399 126.272 47.5574 126.862 47.7857 127.413C48.014 127.965 48.3486 128.465 48.7704 128.887C49.1922 129.309 49.693 129.644 50.2441 129.872C50.7952 130.1 51.3859 130.218 51.9825 130.218H222.706C223.911 130.218 225.066 129.739 225.918 128.887C226.77 128.035 227.248 126.88 227.248 125.675V108.641H47.4399Z" fill="#E6E6E6"/>
<path d="M218.542 9.46484H56.5249V100.315H218.542V9.46484Z" fill="#E6E6E6"/>
<path d="M137.533 123.784C140.042 123.784 142.076 121.751 142.076 119.242C142.076 116.733 140.042 114.699 137.533 114.699C135.024 114.699 132.991 116.733 132.991 119.242C132.991 121.751 135.024 123.784 137.533 123.784Z" fill="#3F3D56"/>
<path d="M61.5764 13.3022C62.0525 13.3022 62.4385 12.9163 62.4385 12.4402C62.4385 11.9641 62.0525 11.5781 61.5764 11.5781C61.1003 11.5781 60.7144 11.9641 60.7144 12.4402C60.7144 12.9163 61.1003 13.3022 61.5764 13.3022Z" fill="white"/>
<path d="M64.8489 13.3022C65.325 13.3022 65.7109 12.9163 65.7109 12.4402C65.7109 11.9641 65.325 11.5781 64.8489 11.5781C64.3728 11.5781 63.9868 11.9641 63.9868 12.4402C63.9868 12.9163 64.3728 13.3022 64.8489 13.3022Z" fill="white"/>
<path d="M68.1208 13.3022C68.5969 13.3022 68.9829 12.9163 68.9829 12.4402C68.9829 11.9641 68.5969 11.5781 68.1208 11.5781C67.6447 11.5781 67.2588 11.9641 67.2588 12.4402C67.2588 12.9163 67.6447 13.3022 68.1208 13.3022Z" fill="white"/>
<path d="M213.872 15.3672H60.7144V91.6668H213.872V15.3672Z" fill="white"/>
<path d="M70.8954 26.9727C70.7519 26.9728 70.6142 27.0299 70.5127 27.1314C70.4112 27.2329 70.3541 27.3705 70.354 27.5141V54.8825C70.3541 55.0261 70.4112 55.1637 70.5127 55.2652C70.6142 55.3667 70.7519 55.4238 70.8954 55.4239H102.502C102.645 55.4238 102.783 55.3667 102.884 55.2652C102.986 55.1637 103.043 55.0261 103.043 54.8825V27.5141C103.043 27.3705 102.986 27.2329 102.884 27.1314C102.783 27.0299 102.645 26.9728 102.502 26.9727H70.8954Z" fill="#E6E6E6"/>
<path d="M121.643 27.0625C121.5 27.0626 121.362 27.1197 121.26 27.2212C121.159 27.3227 121.102 27.4604 121.102 27.6039V54.8843C121.102 55.0279 121.159 55.1656 121.26 55.2671C121.362 55.3686 121.5 55.4257 121.643 55.4258H153.149C153.292 55.4256 153.43 55.3685 153.531 55.2669C153.633 55.1654 153.69 55.0278 153.69 54.8843V27.6039C153.69 27.4604 153.633 27.3228 153.531 27.2213C153.43 27.1198 153.292 27.0627 153.149 27.0625H121.643Z" fill="#E6E6E6"/>
<path d="M171.859 26.7773C171.715 26.7775 171.578 26.8346 171.476 26.9361C171.375 27.0376 171.318 27.1753 171.317 27.3188V54.8851C171.318 55.0287 171.375 55.1663 171.476 55.2678C171.578 55.3693 171.715 55.4264 171.859 55.4266H203.692C203.835 55.4264 203.973 55.3693 204.074 55.2678C204.176 55.1663 204.233 55.0287 204.233 54.8851V27.3188C204.233 27.1753 204.176 27.0376 204.074 26.9361C203.973 26.8346 203.835 26.7775 203.692 26.7773H171.859Z" fill="#E6E6E6"/>
<path d="M71.4733 68.9727C71.1767 68.9732 70.8926 69.0914 70.6831 69.3013C70.4736 69.5111 70.356 69.7955 70.356 70.0921C70.356 70.3886 70.4736 70.673 70.6831 70.8829C70.8926 71.0927 71.1767 71.2109 71.4733 71.2115H101.189C101.486 71.2109 101.77 71.0927 101.979 70.8829C102.189 70.673 102.307 70.3886 102.307 70.0921C102.307 69.7955 102.189 69.5111 101.979 69.3013C101.77 69.0914 101.486 68.9732 101.189 68.9727H71.4733Z" fill="#E6E6E6"/>
<path d="M71.4734 74.2969C71.1768 74.2974 70.8926 74.4156 70.6831 74.6255C70.4736 74.8354 70.356 75.1198 70.356 75.4164C70.356 75.7129 70.4736 75.9974 70.6831 76.2073C70.8926 76.4171 71.1768 76.5353 71.4734 76.5359H84.8528C85.1494 76.5353 85.4336 76.4171 85.6431 76.2073C85.8525 75.9974 85.9702 75.7129 85.9702 75.4164C85.9702 75.1198 85.8525 74.8354 85.6431 74.6255C85.4336 74.4156 85.1494 74.2974 84.8528 74.2969H71.4734Z" fill="#6C63FF"/>
<path d="M122.766 68.9727C122.47 68.9732 122.186 69.0914 121.976 69.3013C121.767 69.5111 121.649 69.7955 121.649 70.0921C121.649 70.3886 121.767 70.673 121.976 70.8829C122.186 71.0927 122.47 71.2109 122.766 71.2115H152.482C152.779 71.2109 153.063 71.0927 153.272 70.8829C153.482 70.673 153.6 70.3886 153.6 70.0921C153.6 69.7955 153.482 69.5111 153.272 69.3013C153.063 69.0914 152.779 68.9732 152.482 68.9727H122.766Z" fill="#E6E6E6"/>
<path d="M122.766 74.2969C122.47 74.2974 122.186 74.4156 121.976 74.6255C121.767 74.8354 121.649 75.1198 121.649 75.4164C121.649 75.7129 121.767 75.9974 121.976 76.2073C122.186 76.4171 122.47 76.5353 122.766 76.5359H136.146C136.443 76.5353 136.727 76.4171 136.936 76.2073C137.146 75.9974 137.263 75.7129 137.263 75.4164C137.263 75.1198 137.146 74.8354 136.936 74.6255C136.727 74.4156 136.443 74.2974 136.146 74.2969H122.766Z" fill="#6C63FF"/>
<path d="M172.777 68.9727C172.48 68.9732 172.196 69.0914 171.987 69.3013C171.777 69.5111 171.66 69.7955 171.66 70.0921C171.66 70.3886 171.777 70.673 171.987 70.8829C172.196 71.0927 172.48 71.2109 172.777 71.2115H202.493C202.789 71.2109 203.074 71.0927 203.283 70.8829C203.493 70.673 203.61 70.3886 203.61 70.0921C203.61 69.7955 203.493 69.5111 203.283 69.3013C203.074 69.0914 202.789 68.9732 202.493 68.9727H172.777Z" fill="#E6E6E6"/>
<path d="M71.4733 63.4727C71.1767 63.4732 70.8926 63.5914 70.6831 63.8013C70.4736 64.0111 70.356 64.2955 70.356 64.5921C70.356 64.8886 70.4736 65.173 70.6831 65.3829C70.8926 65.5927 71.1767 65.7109 71.4733 65.7115H101.189C101.486 65.7109 101.77 65.5927 101.979 65.3829C102.189 65.173 102.307 64.8886 102.307 64.5921C102.307 64.2955 102.189 64.0111 101.979 63.8013C101.77 63.5914 101.486 63.4732 101.189 63.4727H71.4733Z" fill="#E6E6E6"/>
<path d="M122.766 63.4727C122.47 63.4732 122.186 63.5914 121.976 63.8013C121.767 64.0111 121.649 64.2955 121.649 64.5921C121.649 64.8886 121.767 65.173 121.976 65.3829C122.186 65.5927 122.47 65.7109 122.766 65.7115H152.482C152.779 65.7109 153.063 65.5927 153.272 65.3829C153.482 65.173 153.6 64.8886 153.6 64.5921C153.6 64.2955 153.482 64.0111 153.272 63.8013C153.063 63.5914 152.779 63.4732 152.482 63.4727H122.766Z" fill="#E6E6E6"/>
<path d="M172.777 63.4727C172.48 63.4732 172.196 63.5914 171.987 63.8013C171.777 64.0111 171.66 64.2955 171.66 64.5921C171.66 64.8886 171.777 65.173 171.987 65.3829C172.196 65.5927 172.48 65.7109 172.777 65.7115H202.493C202.789 65.7109 203.074 65.5927 203.283 65.3829C203.493 65.173 203.61 64.8886 203.61 64.5921C203.61 64.2955 203.493 64.0111 203.283 63.8013C203.074 63.5914 202.789 63.4732 202.493 63.4727H172.777Z" fill="#E6E6E6"/>
<path d="M172.777 74.2969C172.481 74.2974 172.196 74.4156 171.987 74.6255C171.777 74.8354 171.66 75.1198 171.66 75.4164C171.66 75.7129 171.777 75.9974 171.987 76.2073C172.196 76.4171 172.481 76.5353 172.777 76.5359H186.156C186.453 76.5353 186.737 76.4171 186.947 76.2073C187.156 75.9974 187.274 75.7129 187.274 75.4164C187.274 75.1198 187.156 74.8354 186.947 74.6255C186.737 74.4156 186.453 74.2974 186.156 74.2969H172.777Z" fill="#6C63FF"/>
</svg>
